<svg width="1024" height="1026" viewBox="0 0 1024 1026" fill="none" xmlns="http://www.w3.org/2000/svg">
<path opacity="0.6" d="M461.805 178.403C493.55 196.731 530.427 192.288 544.173 168.48C557.919 144.671 543.328 110.513 511.583 92.1854C479.839 73.8576 442.961 78.3006 429.215 102.109C415.47 125.918 430.06 160.076 461.805 178.403Z" fill="#2A1309" style="fill:#2A1309;fill:color(display-p3 0.1665 0.0727 0.0336);fill-opacity:1;"/>
<path opacity="0.6" d="M888.257 833.403C856.512 851.731 819.635 847.288 805.889 823.48C792.143 799.671 806.734 765.513 838.479 747.185C870.223 728.858 907.101 733.301 920.847 757.109C934.592 780.918 920.001 815.076 888.257 833.403Z" fill="#4F2412" style="fill:#4F2412;fill:color(display-p3 0.3107 0.1406 0.0697);fill-opacity:1;"/>
<path opacity="0.6" d="M111.794 708.458C85.8749 682.539 80.622 645.768 100.062 626.329C119.501 606.889 156.272 612.142 182.191 638.062C208.111 663.981 213.363 700.752 193.924 720.191C174.484 739.631 137.714 734.378 111.794 708.458Z" fill="#4F2412" style="fill:#4F2412;fill:color(display-p3 0.3107 0.1406 0.0697);fill-opacity:1;"/>
<path d="M809.055 485.337C739.937 507.795 669.747 482.421 652.28 428.663C634.813 374.905 676.684 313.12 745.801 290.663C814.918 268.205 885.109 293.579 902.576 347.337C920.042 401.095 878.172 462.88 809.055 485.337Z" fill="#7A4F28" style="fill:#7A4F28;fill:color(display-p3 0.4784 0.3098 0.1569);fill-opacity:1;"/>
<path d="M797.006 448.256C753.488 462.396 709.444 446.881 698.631 413.603C687.818 380.324 714.331 341.884 757.849 327.744C801.367 313.604 845.412 329.119 856.224 362.397C867.037 395.676 840.524 434.116 797.006 448.256Z" fill="#B8845A" style="fill:#B8845A;fill:color(display-p3 0.7216 0.5176 0.3529);fill-opacity:1;"/>
<path d="M214.148 485.337C283.265 507.795 353.455 482.421 370.922 428.663C388.389 374.905 346.518 313.12 277.401 290.663C208.284 268.205 138.094 293.579 120.627 347.337C103.16 401.095 145.031 462.88 214.148 485.337Z" fill="#7A4F28" style="fill:#7A4F28;fill:color(display-p3 0.4784 0.3098 0.1569);fill-opacity:1;"/>
<path d="M226.196 448.256C269.714 462.396 313.758 446.881 324.571 413.603C335.384 380.324 308.871 341.884 265.353 327.744C221.835 313.604 177.791 329.119 166.978 362.397C156.165 395.676 182.678 434.116 226.196 448.256Z" fill="#B8845A" style="fill:#B8845A;fill:color(display-p3 0.7216 0.5176 0.3529);fill-opacity:1;"/>
<path d="M512 845C664.431 845 788 708.447 788 540C788 371.553 664.431 235 512 235C359.569 235 236 371.553 236 540C236 708.447 359.569 845 512 845Z" fill="#EDE6D6" style="fill:#EDE6D6;fill:color(display-p3 0.9294 0.9020 0.8392);fill-opacity:1;"/>
<path opacity="0.7" d="M674.006 583.414C709.873 559.409 753.711 575.413 757.696 611.42C761.682 647.428 725.814 679.435 685.961 667.433C646.109 655.43 630.168 619.422 646.109 595.417C662.05 571.412 674.006 583.414 674.006 583.414Z" fill="#8B5935" style="fill:#8B5935;fill:color(display-p3 0.5451 0.3490 0.2078);fill-opacity:1;"/>
<path d="M402.5 514C419.345 514 433 500.345 433 483.5C433 466.655 419.345 453 402.5 453C385.655 453 372 466.655 372 483.5C372 500.345 385.655 514 402.5 514Z" fill="#1A0C04" style="fill:#1A0C04;fill:color(display-p3 0.1020 0.0471 0.0157);fill-opacity:1;"/>
<path d="M414.361 483.5C420.912 483.5 426.222 478.19 426.222 471.639C426.222 465.088 420.912 459.778 414.361 459.778C407.81 459.778 402.5 465.088 402.5 471.639C402.5 478.19 407.81 483.5 414.361 483.5Z" fill="white" style="fill:white;fill-opacity:1;"/>
<path d="M601.5 514C618.345 514 632 500.345 632 483.5C632 466.655 618.345 453 601.5 453C584.655 453 571 466.655 571 483.5C571 500.345 584.655 514 601.5 514Z" fill="#1A0C04" style="fill:#1A0C04;fill:color(display-p3 0.1020 0.0471 0.0157);fill-opacity:1;"/>
<path d="M613.361 483.5C619.912 483.5 625.222 478.19 625.222 471.639C625.222 465.088 619.912 459.778 613.361 459.778C606.81 459.778 601.5 465.088 601.5 471.639C601.5 478.19 606.81 483.5 613.361 483.5Z" fill="white" style="fill:white;fill-opacity:1;"/>
<path d="M503.9 716.895C570.671 716.895 624.8 674.161 624.8 621.447C624.8 568.733 570.671 526 503.9 526C437.129 526 383 568.733 383 621.447C383 674.161 437.129 716.895 503.9 716.895Z" fill="#D4836A" style="fill:#D4836A;fill:color(display-p3 0.8314 0.5137 0.4157);fill-opacity:1;"/>
<path d="M459.358 646.9C471.658 646.9 481.629 639.066 481.629 629.401C481.629 619.737 471.658 611.903 459.358 611.903C447.058 611.903 437.087 619.737 437.087 629.401C437.087 639.066 447.058 646.9 459.358 646.9Z" fill="#B5604A" style="fill:#B5604A;fill:color(display-p3 0.7098 0.3765 0.2902);fill-opacity:1;"/>
<path d="M548.442 646.9C560.742 646.9 570.713 639.066 570.713 629.401C570.713 619.737 560.742 611.903 548.442 611.903C536.142 611.903 526.171 619.737 526.171 629.401C526.171 639.066 536.142 646.9 548.442 646.9Z" fill="#B5604A" style="fill:#B5604A;fill:color(display-p3 0.7098 0.3765 0.2902);fill-opacity:1;"/>
<path d="M448.999 304.909C492.656 272.388 569.057 283.228 587.248 326.59C605.438 369.952 569.057 427.768 518.123 434.995C467.19 442.222 419.894 409.7 416.256 362.725C412.618 315.75 448.999 304.909 448.999 304.909Z" fill="#8B5935" style="fill:#8B5935;fill:color(display-p3 0.5451 0.3490 0.2078);fill-opacity:1;"/>
</svg>
